<?xml version="1.0" encoding="utf-8"?>
<!-- Generator: Adobe Illustrator 25.3.0, SVG Export Plug-In . SVG Version: 6.00 Build 0)  -->
<svg version="1.1" id="Layer_1" xmlns="http://www.w3.org/2000/svg" xmlns:xlink="http://www.w3.org/1999/xlink" x="0px" y="0px"
	 viewBox="0 0 421 515.3" style="enable-background:new 0 0 421 515.3;" xml:space="preserve">
<g>
	<path d="M198,266.8c-14,3.6-25.4,15.2-28.9,29.2c-4.6,18.4,3.2,35.3,16.7,44.5c1.6,1.1,2.6,2.8,2.6,4.7v55.3c0,3.2,2.6,5.7,5.7,5.7
		h29.8c3.2,0,5.7-2.6,5.7-5.7v-55.3c0-1.9,1-3.6,2.6-4.7c10.9-7.4,18.1-19.8,18.1-33.9C250.3,280.2,225.5,259.6,198,266.8z"/>
	<path d="M369.1,162.7h-42.5v-38.3C326.7,55.8,270.8,0,202.2,0S77.8,55.8,77.8,124.4v38.3H51.9C23.3,162.7,0,186,0,214.6v248.8
		c0,28.6,23.3,51.9,51.9,51.9h317.2c28.6,0,51.9-23.3,51.9-51.9V214.6C421,186,397.7,162.7,369.1,162.7z M115.6,124.4
		c0-47.8,38.9-86.7,86.7-86.7s86.7,38.9,86.7,86.7v38.3H115.6V124.4z M383.3,463.5c0,7.8-6.4,14.2-14.2,14.2H51.9
		c-7.8,0-14.2-6.4-14.2-14.2V214.6c0-7.8,6.4-14.2,14.2-14.2h317.2c7.8,0,14.2,6.4,14.2,14.2V463.5z"/>
</g>
</svg>
